<?xml version="1.0" encoding="UTF-8" standalone="no"?>
<!-- Created with Inkscape (http://www.inkscape.org/) -->

<svg
   width="231.51042mm"
   height="48.683334mm"
   viewBox="0 0 231.51042 48.683334"
   version="1.1"
   id="svg5"
   inkscape:version="1.1 (c68e22c387, 2021-05-23)"
   sodipodi:docname="logo-header-white-white-transparent.svg"
   xmlns:inkscape="http://www.inkscape.org/namespaces/inkscape"
   xmlns:sodipodi="http://sodipodi.sourceforge.net/DTD/sodipodi-0.dtd"
   xmlns="http://www.w3.org/2000/svg"
   xmlns:svg="http://www.w3.org/2000/svg">
  <sodipodi:namedview
     id="namedview7"
     pagecolor="#ffffff"
     bordercolor="#666666"
     borderopacity="1.0"
     inkscape:pageshadow="2"
     inkscape:pageopacity="0.0"
     inkscape:pagecheckerboard="0"
     inkscape:document-units="mm"
     showgrid="false"
     fit-margin-top="0"
     fit-margin-left="0"
     fit-margin-right="0"
     fit-margin-bottom="0"
     inkscape:zoom="0.52410025"
     inkscape:cx="151.68854"
     inkscape:cy="420.72104"
     inkscape:window-width="1920"
     inkscape:window-height="1017"
     inkscape:window-x="892"
     inkscape:window-y="285"
     inkscape:window-maximized="1"
     inkscape:current-layer="layer1" />
  <defs
     id="defs2">
    <inkscape:path-effect
       effect="powerclip"
       id="path-effect1687"
       is_visible="true"
       lpeversion="1"
       inverse="true"
       flatten="false"
       hide_clip="false"
       message="Use fill-rule evenodd on &lt;b&gt;fill and stroke&lt;/b&gt; dialog if no flatten result after convert clip to paths." />
    <clipPath
       clipPathUnits="userSpaceOnUse"
       id="clipPath1683">
      <path
         style="display:none;fill:#0a062c;stroke:none;stroke-width:0.264583"
         d="m 121.55477,-107.23131 v -23.54792 h 23.54792 v 23.54792 h -23.54792 m 11.90625,-2.64583 c 2.76519,-3.96875 -2.92899,-8.21571 -4.68165,-11.37709 -0.86082,-1.5527 -0.8746,-3.0386 -0.8746,-4.7625 h -4.23334 l 6.19075,10.58334 3.59884,5.55625 m 1.85208,-3.175 c 2.9083,-3.80715 -1.37019,-6.1258 -3.04392,-9.26042 -0.63357,-1.18655 -0.43133,-2.42213 -0.39566,-3.70417 h -3.175 l 5.4411,8.99584 1.17348,3.96875 m 2.38125,-3.96875 c 2.24825,-2.60766 -0.76676,-4.48115 -1.96601,-6.61459 -0.42593,-0.75774 -0.41238,-1.53873 -0.41524,-2.38125 h -2.64583 c 0.52213,2.59131 2.32526,3.99701 3.77153,6.08542 0.63431,0.91596 0.75626,1.96869 1.25555,2.91042 m 2.11667,-3.175 3.175,-5.82084 h -6.61458 l 2.29182,3.43959 z"
         id="path1685"
         clip-path="none" />
      <path
         id="lpe_path-effect1687"
         style="fill:#0a062c;stroke:none;stroke-width:0.264583"
         class="powerclip"
         d="m 118.6702,-131.01673 h 29.31584 v 26.14799 H 118.6702 Z m 2.88457,23.78542 h 23.54792 v -23.54792 h -23.54792 v 23.54792 m 11.90625,-2.64583 c 2.76519,-3.96875 -2.92899,-8.21571 -4.68165,-11.37709 -0.86082,-1.5527 -0.8746,-3.0386 -0.8746,-4.7625 h -4.23334 l 6.19075,10.58334 3.59884,5.55625 m 1.85208,-3.175 c 2.9083,-3.80715 -1.37019,-6.1258 -3.04392,-9.26042 -0.63357,-1.18655 -0.43133,-2.42213 -0.39566,-3.70417 h -3.175 l 5.4411,8.99584 1.17348,3.96875 m 2.38125,-3.96875 c 2.24825,-2.60766 -0.76676,-4.48115 -1.96601,-6.61459 -0.42593,-0.75774 -0.41238,-1.53873 -0.41524,-2.38125 h -2.64583 c 0.52213,2.59131 2.32526,3.99701 3.77153,6.08542 0.63431,0.91596 0.75626,1.96869 1.25555,2.91042 m 2.11667,-3.175 3.175,-5.82084 h -6.61458 l 2.29182,3.43959 z" />
    </clipPath>
    <clipPath
       clipPathUnits="userSpaceOnUse"
       id="clipPath2584">
      <rect
         style="fill:#ffffff;fill-opacity:1;stroke:#000000;stroke-width:0.43084;stroke-opacity:1"
         id="rect2586"
         width="40.56916"
         height="40.56916"
         x="-39.290417"
         y="-51.153107" />
    </clipPath>
  </defs>
  <g
     inkscape:label="Layer 1"
     inkscape:groupmode="layer"
     id="layer1"
     transform="translate(49.001606,-18.851843)">
    <g
       id="g24694"
       transform="translate(-0.57491297,0.10363418)"
       style="fill:#ffffff">
      <path
         style="fill:#ffffff;stroke-width:0.264583"
         d="m -39.29567,-11.578735 c 0,-0.333279 19.913021,-33.440151 20.11348,-33.440151 0.115035,0 0.532241,0.551305 0.927124,1.225121 0.661588,1.128916 0.708856,1.398696 0.601948,3.435565 -0.170259,3.243865 -1.50449,5.744662 -6.406563,12.008065 -2.107009,2.692135 -4.199786,5.57639 -4.650614,6.409452 -1.811796,3.347929 -2.389826,6.230575 -1.778666,8.870235 l 0.382868,1.653646 h -4.594789 c -2.527133,0 -4.594788,-0.07287 -4.594788,-0.161933 z m 10.725916,-0.830254 c 0.537671,-3.202856 2.035411,-5.855661 6.610087,-11.707813 5.216017,-6.672586 6.150311,-8.487226 6.44093,-12.509957 l 0.167859,-2.323499 1.256771,2.100847 c 1.396206,2.333929 1.536838,3.226809 0.864714,5.490094 -0.488162,1.643825 -1.665245,3.334911 -5.097643,7.323657 -1.478475,1.718117 -3.009722,3.781142 -3.402769,4.584502 -1.081561,2.210636 -1.176938,5.269865 -0.236043,7.571335 0.174607,0.427099 -0.08069,0.463021 -3.290587,0.463021 h -3.479879 z m 8.156336,-0.264584 c 0.282019,-2.100199 1.563725,-4.22711 4.823103,-8.003646 3.514278,-4.071876 4.552124,-5.924635 4.824561,-8.612773 l 0.177377,-1.750181 0.992187,1.699123 c 0.8318368,1.424522 0.9921876,1.942919 0.9921876,3.207643 0,2.051038 -0.652489,3.225717 -3.3483446,6.02803 -1.220939,1.26915 -2.452701,2.820545 -2.737252,3.447542 -0.560227,1.234435 -0.692084,3.454688 -0.270952,4.562351 l 0.258035,0.678682 h -2.939831 -2.939833 z m 7.166629,0.529167 c 0.276068,-1.134343 1.379167,-2.654792 3.6403888,-5.017709 2.3886874,-2.496114 2.8998439,-3.505298 2.8893267,-5.704433 -0.00415,-0.866648 0.03393,-1.532257 0.084611,-1.479134 0.2061554,0.21609 7.55346024,12.652338 7.55346024,12.78519 0,0.07903 -3.22759404,0.14369 -7.17243374,0.14369 h -7.172434 z m 35.117707,-4.254167 c -0.399082,-0.30703 -0.664713,-0.852979 -0.759746,-1.561502 -0.124235,-0.926248 -0.04404,-1.1915 0.53545,-1.770988 0.668523,-0.668523 1.739136,-0.877552 2.66836,-0.520973 0.799518,0.306803 0.421823,0.657749 -0.518107,0.481418 -1.214702,-0.227881 -1.973794,0.403553 -1.973794,1.641848 0,1.188452 1.012854,1.911098 2.029404,1.447927 0.849435,-0.387028 1.194121,-0.117184 0.499298,0.390882 -0.695354,0.508455 -1.738138,0.462804 -2.480865,-0.108612 z m 8.315825,-0.111458 c -0.643358,-0.578829 -0.784212,-1.018048 -0.721212,-2.248958 0.08154,-1.593215 2.385296,-2.233287 3.614367,-1.004213 1.99321,1.993207 -0.801177,5.135322 -2.893155,3.253171 z m 1.985147,-0.214524 c 1.460556,-0.781667 0.958806,-3.141874 -0.670684,-3.154863 -1.341252,-0.01069 -1.96116,1.892081 -0.946875,2.906366 0.60248,0.60248 0.877261,0.644692 1.617559,0.248497 z m 6.319941,-1.439122 c 0,-2.701412 0.417354,-2.974149 1.445721,-0.944766 0.363487,0.717306 0.756311,1.36317 0.872942,1.435251 0.116631,0.07208 0.550212,-0.514803 0.963509,-1.304192 1.110623,-2.121263 1.480328,-1.918044 1.480328,0.813707 0,2.594745 -0.464822,3.06964 -0.582686,0.595313 l -0.07877,-1.653646 -0.738756,1.256771 c -0.406318,0.691224 -0.841489,1.25677 -0.967047,1.25677 -0.125561,0 -0.567026,-0.565546 -0.981036,-1.25677 l -0.752744,-1.256771 -0.07877,1.653646 c -0.117864,2.474327 -0.582687,1.999432 -0.582687,-0.595313 z m 9.789584,0 c 0,-2.726404 0.313399,-2.887604 1.488789,-0.765773 l 0.821611,1.483186 0.848592,-1.483186 c 0.466728,-0.815753 0.958919,-1.483185 1.093759,-1.483185 0.134842,0 0.245165,1.012031 0.245165,2.248958 0,1.322917 -0.108944,2.248959 -0.264583,2.248959 -0.146852,0 -0.270065,-0.735817 -0.276902,-1.653646 l -0.01233,-1.653646 -0.663059,1.27418 c -0.36468,0.700799 -0.805622,1.227834 -0.979868,1.171189 -0.174244,-0.05664 -0.614466,-0.630026 -0.978268,-1.27418 l -0.661458,-1.171189 -0.07877,1.653646 c -0.117854,2.474327 -0.582676,1.999432 -0.582676,-0.595313 z m 10.377622,1.837082 c -0.511654,-0.358379 -0.588039,-0.65051 -0.588039,-2.248959 0,-1.048332 0.113599,-1.837081 0.264584,-1.837081 0.146637,0 0.264583,0.699256 0.264583,1.568601 0,1.073224 0.131305,1.699905 0.415774,1.984375 1.009047,1.009046 1.965476,-0.0404 1.965476,-2.15664 0,-0.767985 0.119062,-1.396336 0.264583,-1.396336 0.149252,0 0.264584,0.749652 0.264584,1.719791 0,1.367015 -0.108548,1.82834 -0.529167,2.248959 -0.634339,0.634338 -1.520304,0.679085 -2.322378,0.11729 z m 7.878628,-1.837082 c 0,-1.236927 0.11207,-2.248958 0.249044,-2.248958 0.136975,0 0.760487,0.654844 1.385578,1.455208 0.625094,0.800365 1.227397,1.455208 1.338456,1.455208 0.111056,0 0.201922,-0.654843 0.201922,-1.455208 0,-0.800364 0.119063,-1.455208 0.264583,-1.455208 0.155639,0 0.264584,0.926041 0.264584,2.248958 0,1.236927 -0.112104,2.248959 -0.249119,2.248959 -0.137017,0 -0.821626,-0.744141 -1.521354,-1.653646 l -1.272236,-1.653646 -0.07877,1.653646 c -0.117864,2.474327 -0.582687,1.999432 -0.582688,-0.595313 z m 8.995833,0 c 0,-1.322917 0.108945,-2.248958 0.264584,-2.248958 0.155638,0 0.264583,0.926041 0.264583,2.248958 0,1.322917 -0.108945,2.248959 -0.264583,2.248959 -0.155639,0 -0.264584,-0.926042 -0.264584,-2.248959 z m 6.614584,0.264583 c 0,-1.940276 -0.01471,-1.984375 -0.661458,-1.984375 -0.363803,0 -0.661459,-0.119062 -0.661459,-0.264583 0,-0.149251 0.749652,-0.264583 1.719792,-0.264583 0.97014,0 1.719792,0.115332 1.719792,0.264583 0,0.145521 -0.297657,0.264583 -0.661459,0.264583 -0.646758,0 -0.661458,0.0441 -0.661458,1.984375 0,1.5875 -0.07937,1.984376 -0.396875,1.984376 -0.3175,0 -0.396875,-0.396876 -0.396875,-1.984376 z m 7.937499,1.110134 c 0,-0.516853 -0.32448,-1.385898 -0.79375,-2.125856 -0.898588,-1.416926 -0.92327,-1.497819 -0.45704,-1.497819 0.18519,0 0.56112,0.416719 0.83541,0.926041 0.27429,0.509323 0.58027,0.926042 0.67996,0.926042 0.0997,0 0.40568,-0.416719 0.67996,-0.926042 0.27429,-0.509322 0.65897,-0.926041 0.85484,-0.926041 0.24172,0 0.0949,0.45657 -0.45705,1.42127 -0.44724,0.781698 -0.81316,1.79373 -0.81316,2.248958 0,0.455229 -0.11907,0.827689 -0.26459,0.827689 -0.14552,0 -0.26458,-0.393409 -0.26458,-0.874242 z m 12.623899,0.498652 c -1.08991,-0.826722 -1.03535,-3.262916 0.0865,-3.863329 0.83148,-0.444995 2.6354,-0.252074 2.6354,0.281842 0,0.120803 -0.41941,0.15158 -0.93203,0.0684 -1.15507,-0.187444 -1.97839,0.456951 -1.97839,1.548439 0,1.324634 1.51848,2.303434 2.32393,1.497986 0.44138,-0.441385 0.73308,-0.05005 0.32721,0.438987 -0.41207,0.496519 -1.82364,0.512386 -2.46265,0.02768 z m 8.13386,-0.273844 c -0.87901,-0.879006 -0.89697,-2.465355 -0.0371,-3.273197 0.83916,-0.788345 2.2868,-0.770721 3.04569,0.03708 1.29749,1.381117 0.30399,3.885552 -1.54138,3.885552 -0.51551,0 -1.05787,-0.24006 -1.46724,-0.649434 z m 2.52557,-0.4089 c 1.03939,-1.039394 0.35902,-2.910417 -1.05833,-2.910417 -0.86116,0 -1.5875,0.813811 -1.5875,1.778665 0,0.744048 0.87634,1.660919 1.5875,1.660919 0.29104,0 0.76729,-0.238125 1.05833,-0.529167 z m 6.08542,-1.190625 c 0,-1.322917 0.10894,-2.248958 0.26458,-2.248958 0.15287,0 0.26458,0.837848 0.26458,1.984375 v 1.984375 h 0.92604 c 0.50933,0 0.92605,0.119062 0.92605,0.264583 0,0.145521 -0.53578,0.264584 -1.19063,0.264584 h -1.19062 z m 7.14375,0 c 0,-1.322917 0.10894,-2.248958 0.26458,-2.248958 0.15287,0 0.26458,0.837848 0.26458,1.984375 v 1.984375 h 0.92604 c 0.50933,0 0.92605,0.119062 0.92605,0.264583 0,0.145521 -0.53578,0.264584 -1.19063,0.264584 h -1.19062 z m 7.14375,0 v -2.248958 h 1.4552 c 0.80037,0 1.45521,0.119062 1.45521,0.264583 0,0.145521 -0.47625,0.264583 -1.05833,0.264583 -0.9525,0 -1.05833,0.06615 -1.05833,0.661459 0,0.558564 0.12347,0.661458 0.79375,0.661458 0.43656,0 0.79375,0.119063 0.79375,0.264583 0,0.145521 -0.35719,0.264584 -0.79375,0.264584 -0.70556,0 -0.79375,0.08819 -0.79375,0.79375 0,0.749652 0.0588,0.79375 1.05833,0.79375 0.58208,0 1.05833,0.119062 1.05833,0.264583 0,0.145521 -0.65484,0.264584 -1.45521,0.264584 h -1.4552 z m 8.05776,1.599525 c -0.89043,-0.890431 -0.88375,-2.315297 0.0151,-3.214116 0.53553,-0.535532 0.87815,-0.648734 1.76537,-0.583287 0.60549,0.04467 1.15155,0.235233 1.21348,0.423482 0.0816,0.248107 -0.0765,0.294809 -0.57474,0.169754 -1.0964,-0.275177 -1.92912,0.06514 -2.22314,0.908555 -0.47455,1.361308 0.57559,2.647831 1.8917,2.317507 0.80226,-0.201353 0.92245,-0.805511 0.23939,-1.203352 -0.39584,-0.23056 -0.35746,-0.270851 0.26459,-0.27773 0.63195,-0.007 0.7276,0.09508 0.7276,0.776396 0,1.422977 -2.13911,1.862997 -3.31931,0.682791 z m 8.3464,-1.599525 v -2.248958 h 1.32292 c 0.7276,0 1.32292,0.119062 1.32292,0.264583 0,0.145521 -0.47625,0.264583 -1.05834,0.264583 -0.9525,0 -1.05833,0.06615 -1.05833,0.661459 0,0.558564 0.12347,0.661458 0.79375,0.661458 0.43656,0 0.79375,0.119063 0.79375,0.264583 0,0.145521 -0.35719,0.264584 -0.79375,0.264584 -0.70556,0 -0.79375,0.08819 -0.79375,0.79375 0,0.749652 0.0588,0.79375 1.05833,0.79375 0.58209,0 1.05834,0.119062 1.05834,0.264583 0,0.145521 -0.59532,0.264584 -1.32292,0.264584 h -1.32292 z M 1.1855807,-29.115202 c 0,-0.129746 0.28343,-0.307037 0.629844,-0.393981 0.852059,-0.213854 0.949846,-0.740916 0.954045,-5.142201 0.0036,-3.786051 -0.194929,-4.811251 -0.931738,-4.811251 -0.213162,0 -0.387567,-0.119063 -0.387567,-0.264584 0,-0.157821 1.014235,-0.264583 2.5135417,-0.264583 1.499306,0 2.513542,0.106762 2.513542,0.264583 0,0.145521 -0.233937,0.264584 -0.519859,0.264584 -0.878695,0 -1.067641,0.863178 -1.067641,4.877397 0,4.654709 0.132662,4.912186 2.530935,4.912186 2.003322,0 3.2599726,-0.734591 3.2814836,-1.918229 0.0046,-0.254662 0.187008,-0.463021 0.405289,-0.463021 0.431149,0 0.491672,0.581866 0.227052,2.182812 l -0.163997,0.992188 H 6.1780464 c -2.7472347,0 -4.9924657,-0.10609 -4.9924657,-0.2359 z M 16.52598,-29.606906 c -2.041351,-1.043602 -2.975528,-2.325151 -3.116604,-4.275504 -0.142888,-1.975406 0.246875,-3.146035 1.447091,-4.34625 1.364501,-1.364502 2.807599,-1.843949 5.188291,-1.723729 2.313742,0.116838 3.705638,0.87349 4.884918,2.655503 0.615397,0.929926 0.729863,1.382448 0.729863,2.885366 0,1.555402 -0.10169,1.927155 -0.798269,2.918265 -1.788768,2.545109 -5.433351,3.36991 -8.33529,1.886349 z m 5.06857,-0.889382 c 1.553898,-1.097975 2.039416,-4.446966 0.956135,-6.595181 -1.409478,-2.795081 -4.709903,-2.719598 -6.225233,0.142375 -0.557787,1.053482 -0.558916,3.970039 -0.0019,5.027708 1.122952,2.132455 3.39906,2.747832 5.271045,1.425098 z m 9.224364,1.153554 c -1.52006,-0.759355 -1.851197,-1.77968 -1.851673,-5.705525 -4.13e-4,-3.402169 -0.214979,-4.414376 -0.93576,-4.414376 -0.213161,0 -0.387567,-0.119063 -0.387567,-0.264584 0,-0.15875 1.058334,-0.264583 2.645834,-0.264583 1.5875,0 2.645833,0.105833 2.645833,0.264583 0,0.145521 -0.300604,0.264584 -0.668007,0.264584 -0.939778,0 -1.184359,0.838043 -1.1826,4.05212 0.0019,3.447585 0.298582,4.547065 1.377606,5.105048 1.190083,0.615416 3.057232,0.360423 3.815459,-0.521069 0.724318,-0.842069 1.030605,-3.310508 0.763913,-6.156522 -0.17907,-1.910932 -0.228823,-2.030802 -0.957006,-2.305659 -1.304891,-0.492542 -0.861444,-0.703085 1.480844,-0.703085 2.101511,0 2.927455,0.290018 1.722977,0.604996 -0.813988,0.212863 -1.061519,1.284994 -1.061519,4.597763 0,3.716727 -0.347721,4.674105 -1.964304,5.408328 -1.425458,0.647417 -4.185528,0.666673 -5.44403,0.03798 z m 10.847917,0.198849 c 0,-0.145521 0.17009,-0.264584 0.377976,-0.264584 0.207889,0 0.565076,-0.187098 0.79375,-0.415774 0.342199,-0.342197 0.415774,-1.141236 0.415774,-4.51531 0,-4.2639 -0.179051,-5.123082 -1.067641,-5.123082 -0.285922,0 -0.519859,-0.119063 -0.519859,-0.264584 0,-0.157821 1.014236,-0.264583 2.513542,-0.264583 2.519064,0 3.030014,0.177097 1.918229,0.664864 -0.579998,0.254458 -0.597175,0.378668 -0.667718,4.82806 l -0.07241,4.566883 0.667718,0.304233 c 1.20223,0.547772 0.707303,0.74846 -1.845823,0.74846 -1.499306,0 -2.513542,-0.106762 -2.513542,-0.264583 z m 7.052398,-0.522912 c -0.258234,-1.291163 -0.209299,-2.916672 0.0878,-2.916672 0.143568,0 0.428646,0.401158 0.63351,0.891463 0.690033,1.651486 2.514058,2.370651 4.212643,1.660936 1.172012,-0.489698 1.548686,-1.511289 0.844238,-2.289694 -0.253712,-0.280348 -1.181735,-0.781566 -2.062276,-1.113818 -0.880542,-0.332252 -2.056289,-1.032144 -2.612774,-1.555316 -0.865092,-0.813303 -1.011791,-1.114443 -1.011791,-2.076979 0,-0.927497 0.15843,-1.284188 0.899584,-2.025342 0.828521,-0.828522 1.028451,-0.899583 2.530935,-0.899583 0.897245,0 1.86926,0.127324 2.160037,0.282944 0.376076,0.201269 0.627894,0.200608 0.872371,-0.0023 0.27064,-0.224611 0.379513,-0.02384 0.512255,0.944609 0.09271,0.676414 0.168569,1.391819 0.168569,1.58979 0,0.656976 -0.659078,0.372367 -1.018607,-0.439864 -0.721884,-1.630854 -3.096088,-2.072437 -4.073212,-0.757586 -0.752343,1.012374 -0.222049,1.667226 2.047583,2.52853 2.477072,0.940036 3.837986,2.260729 3.837986,3.72457 0,1.26395 -0.764159,2.352147 -2.020301,2.876996 -1.167955,0.488003 -3.373699,0.462305 -4.366067,-0.05087 -0.741013,-0.383193 -0.829839,-0.38012 -1.136546,0.03933 -0.296963,0.406122 -0.351322,0.361948 -0.505939,-0.411142 z m 9.880936,0.540741 c 0,-0.135714 0.244946,-0.324496 0.544322,-0.419515 0.836663,-0.265546 1.043178,-1.204275 1.043178,-4.741841 0,-4.114465 -0.142891,-4.870015 -0.9598,-5.075047 -1.363424,-0.342197 -0.502986,-0.629343 1.885842,-0.629343 1.499306,0 2.513541,0.106762 2.513541,0.264583 0,0.145521 -0.17009,0.264584 -0.377976,0.264584 -0.207888,0 -0.565075,0.187098 -0.79375,0.415773 -0.607552,0.607552 -0.610814,8.18386 -0.0039,9.050355 0.226534,0.323421 0.583721,0.588038 0.79375,0.588038 0.210032,0 0.381873,0.119063 0.381873,0.264584 0,0.157821 -1.014235,0.264583 -2.513541,0.264583 -1.382448,0 -2.513542,-0.111039 -2.513542,-0.246754 z m 6.879167,-0.02438 c 0,-0.149123 0.280355,-0.377723 0.623009,-0.508 0.501271,-0.190583 1.02653,-1.225961 2.688053,-5.298619 2.733177,-6.699452 2.595739,-6.699256 5.37555,-0.0077 1.857134,4.470518 2.107729,4.927598 2.891094,5.27327 0.471742,0.208162 0.857711,0.476053 0.857711,0.595312 0,0.119259 -1.250157,0.216835 -2.778126,0.216835 -1.675693,0 -2.778125,-0.104993 -2.778125,-0.264583 0,-0.145521 0.154782,-0.264584 0.343959,-0.264584 0.7703,0 0.938657,-0.553175 0.531786,-1.747282 l -0.39632,-1.163134 h -1.973005 -1.973004 l -0.383376,0.917543 c -0.539877,1.292108 -0.480591,1.693808 0.278085,1.884224 1.287804,0.323218 0.635286,0.637816 -1.322916,0.637816 -1.178481,0 -1.984375,-0.110112 -1.984375,-0.271132 z m 6.865323,-4.292931 c -0.0076,-0.181901 -0.345823,-1.150184 -0.751572,-2.15174 l -0.73773,-1.821012 -0.733184,1.821012 c -0.403252,1.001556 -0.792158,1.969839 -0.864235,2.15174 -0.0962,0.242786 0.298606,0.33073 1.484757,0.33073 1.12364,0 1.61159,-0.100739 1.601964,-0.33073 z m 7.157594,4.29948 c 0,-0.145521 0.178593,-0.264584 0.396875,-0.264584 0.218281,0 0.635,-0.238125 0.926041,-0.529166 0.481423,-0.481422 0.529167,-0.881945 0.529167,-4.439046 0,-3.110526 -0.08421,-4.030099 -0.411877,-4.497916 -0.226534,-0.323421 -0.583721,-0.588038 -0.79375,-0.588038 -0.210032,0 -0.381873,-0.119063 -0.381873,-0.264584 0,-0.15416 0.876226,-0.264583 2.099508,-0.264583 h 2.099506 l 2.861432,4.118011 2.861433,4.118011 0.0766,-3.125824 c 0.0917,-3.739857 -0.009,-4.256257 -0.87441,-4.473393 -1.340767,-0.336512 -0.590261,-0.636805 1.59153,-0.636805 2.21211,0 2.97973,0.316867 1.4896,0.614893 -0.49724,0.09945 -0.81565,0.362028 -0.92243,0.760677 -0.0897,0.334843 -0.16469,2.662633 -0.16668,5.172867 l -0.004,4.564063 h -1.04532 -1.04532 l -2.669991,-3.820904 c -4.086045,-5.847351 -3.686878,-5.707947 -3.697242,-1.291224 -0.0072,3.065875 0.06717,3.827393 0.406971,4.167187 0.228675,0.228676 0.585862,0.415774 0.79375,0.415774 0.207886,0 0.377976,0.119063 0.377976,0.264584 0,0.155637 -0.926041,0.264583 -2.248958,0.264583 -1.322917,0 -2.248958,-0.108946 -2.248958,-0.264583 z m 13.230842,0.06614 c 7.9e-4,-0.10914 0.32834,-0.388118 0.7276,-0.619951 0.593202,-0.344443 1.087432,-1.326248 2.703072,-5.369702 1.85941,-4.65354 2.01579,-4.943541 2.62612,-4.870153 0.57155,0.06873 0.87421,0.614686 2.536787,4.575952 2.32822,5.547215 2.35139,5.589551 3.17172,5.79544 1.50499,0.377729 0.55551,0.686852 -2.10969,0.686852 -2.769257,0 -3.311927,-0.166206 -2.18281,-0.668527 0.63278,-0.281509 0.6892,-0.818783 0.21654,-2.061976 -0.25965,-0.682929 -0.34351,-0.70908 -2.274007,-0.70908 h -2.00442 l -0.38338,0.917543 c -0.53988,1.292108 -0.48059,1.693808 0.27808,1.884224 1.28781,0.323218 0.63529,0.637816 -1.32291,0.637816 -1.091412,0 -1.983622,-0.0893 -1.982702,-0.198438 z m 6.579422,-5.423958 c -0.30521,-0.763977 -0.68223,-1.744945 -0.83783,-2.179922 l -0.28289,-0.790867 -0.37778,0.923159 c -0.20779,0.507737 -0.6012,1.488705 -0.87425,2.179929 l -0.49646,1.256771 h 1.71207 1.71207 z m 12.733477,5.415819 c 0,-0.113617 0.36004,-0.342476 0.80009,-0.508575 l 0.80009,-0.301999 -0.0725,-4.584654 c -0.0706,-4.467794 -0.0876,-4.591311 -0.66779,-4.845831 -0.32742,-0.143648 -0.59531,-0.352007 -0.59531,-0.463021 0,-0.111014 1.75617,-0.199062 3.9026,-0.195663 3.74615,0.0059 3.95524,0.0351 5.21562,0.727604 4.42058,2.428837 3.8325,8.752242 -0.94129,10.121347 -1.06427,0.305227 -8.44152,0.349616 -8.44152,0.05079 z m 7.15879,-0.851557 c 2.09263,-0.581334 3.19206,-2.985141 2.62177,-5.732243 -0.52064,-2.507875 -2.11226,-3.673902 -4.75347,-3.482406 l -1.19063,0.08633 -0.0732,3.734554 c -0.0407,2.07694 0.0457,4.047173 0.19459,4.438874 0.41429,1.089676 1.52405,1.420736 3.20093,0.954896 z m 7.12871,0.83602 c 0,-0.122162 0.30048,-0.359018 0.66772,-0.526346 l 0.66772,-0.304233 -0.0724,-4.566883 c -0.0705,-4.449392 -0.0877,-4.573602 -0.66771,-4.82806 -0.32743,-0.143648 -0.59532,-0.352007 -0.59532,-0.463021 0,-0.111014 2.0836,-0.201843 4.63021,-0.201843 h 4.63021 v 1.322917 c 0,1.318519 -0.3524,1.767507 -0.65038,0.828644 -0.28206,-0.888676 -1.04268,-1.314818 -2.67538,-1.498894 -2.14578,-0.241923 -2.49507,0.09313 -2.49507,2.393325 0,0.926903 0.0893,1.735238 0.19843,1.7963 0.10914,0.06106 0.65887,0.05344 1.22163,-0.01695 0.7785,-0.09737 1.12649,-0.309598 1.4552,-0.887485 0.23762,-0.417731 0.52133,-0.760264 0.63047,-0.761184 0.10914,-9.19e-4 0.19843,0.950828 0.19843,2.114995 0,1.164166 -0.0893,2.115914 -0.19843,2.114993 -0.10914,-9.26e-4 -0.39207,-0.342094 -0.62873,-0.758164 -0.46427,-0.816229 -2.17654,-1.369377 -2.68011,-0.865809 -0.14592,0.145919 -0.21024,0.99755 -0.14424,1.909891 0.14784,2.043896 0.71737,2.628115 2.55634,2.622271 1.62625,-0.0052 2.44783,-0.452294 3.03519,-1.651833 0.84098,-1.717479 1.14215,-1.258695 0.80215,1.221931 l -0.16826,1.227553 h -4.85883 c -2.67236,0 -4.85883,-0.09995 -4.85883,-0.222114 z m 11.64167,0.01554 c 0,-0.113618 0.36004,-0.342477 0.80009,-0.508576 l 0.80008,-0.301999 -0.0725,-4.584654 c -0.0706,-4.467793 -0.0877,-4.59131 -0.66779,-4.84583 -1.11179,-0.487767 -0.60084,-0.664864 1.91823,-0.664864 2.404,0 3.24789,0.287491 1.86367,0.634908 -0.86132,0.216178 -1.00515,1.069668 -0.89387,5.304523 0.0833,3.168363 0.12572,3.399002 0.71315,3.874122 0.43557,0.352291 1.03618,0.504016 1.98438,0.501296 1.7177,-0.0049 2.58104,-0.43378 3.06114,-1.520585 0.56181,-1.271775 0.81215,-1.046532 0.81215,0.730736 v 1.5875 h -5.15937 c -2.83766,0 -5.15938,-0.09296 -5.15938,-0.206577 z m 13.23489,0.0081 c 0.003,-0.10914 0.38762,-0.377031 0.85437,-0.595312 0.49583,-0.231876 0.92248,-0.671874 1.02624,-1.058333 0.27619,-1.028727 0.25248,-7.757413 -0.0289,-8.202084 -0.17366,-0.274429 -0.67444,-0.390653 -1.62316,-0.376707 -1.52491,0.02241 -2.35093,0.67637 -2.35093,1.861227 0,0.404224 -0.1533,0.632147 -0.42518,0.632147 -0.27901,0 -0.36997,-0.143882 -0.26459,-0.418515 0.0883,-0.230183 0.1606,-0.944558 0.1606,-1.5875 v -1.168942 h 5.66024 c 6.34253,0 5.98143,-0.122436 5.98143,2.028063 0,1.333225 -0.4975,1.485334 -0.82711,0.252885 -0.10698,-0.400004 -0.32607,-0.885806 -0.48687,-1.079561 -0.37706,-0.454321 -1.90037,-0.738832 -2.77734,-0.518727 l -0.68342,0.171527 0.0723,4.533844 0.0723,4.533844 0.85417,0.396875 c 0.46979,0.218281 0.85675,0.486172 0.8599,0.595312 0.003,0.109141 -1.3635,0.198438 -3.03698,0.198438 -1.67349,0 -3.04014,-0.0893 -3.03699,-0.198438 z m 8.99178,0 c 8e-4,-0.10914 0.32861,-0.384329 0.7282,-0.611529 0.59804,-0.34004 1.07462,-1.289782 2.69492,-5.370489 1.87531,-4.722947 2.00016,-4.953668 2.63993,-4.878574 0.59108,0.06938 0.83576,0.4751 2.04211,3.386113 2.665,6.430807 2.72278,6.542802 3.55302,6.8867 1.37973,0.571501 0.83283,0.786217 -2.00256,0.786217 -2.76926,0 -3.31194,-0.166206 -2.18281,-0.668527 0.63278,-0.281509 0.6892,-0.818783 0.21654,-2.061976 -0.25953,-0.682629 -0.3441,-0.70908 -2.26706,-0.70908 -1.89642,0 -2.01042,0.03405 -2.2534,0.673127 -0.62865,1.653484 -0.61366,1.940304 0.11094,2.122166 1.31137,0.329134 0.67688,0.64429 -1.29712,0.64429 -1.09141,0 -1.98363,-0.0893 -1.98271,-0.198438 z m 6.4487,-5.814032 c -0.36832,-0.978525 -0.75047,-1.923539 -0.84925,-2.100031 -0.10223,-0.182684 -0.5387,0.583601 -1.01338,1.779136 l -0.8338,2.100032 h 1.68305 1.68305 z"
         id="path836"
         clip-path="url(#clipPath2584)"
         transform="translate(0.6310418,71.30772)" />
      <g
         id="g24686"
         style="fill:#ffffff">
        <text
           xml:space="preserve"
           style="font-style:normal;font-weight:normal;font-size:18.0528px;line-height:1.25;font-family:sans-serif;fill:#ffffff;fill-opacity:1;stroke:none;stroke-width:0.347934"
           x="1.3548045"
           y="44.263752"
           id="text4130"
           transform="scale(1.0428662,0.95889582)"><tspan
             sodipodi:role="line"
             id="tspan4128"
             style="font-style:normal;font-variant:normal;font-weight:bold;font-stretch:normal;font-size:18.0528px;font-family:'Times New Roman';-inkscape-font-specification:'Times New Roman,  Bold';stroke-width:0.347934;fill:#ffffff"
             x="1.3548045"
             y="44.263752">LOUISIANA DELTA</tspan></text>
        <text
           xml:space="preserve"
           style="font-style:normal;font-weight:normal;font-size:6.60178px;line-height:1.25;font-family:sans-serif;letter-spacing:2.96069px;fill:#ffffff;fill-opacity:1;stroke:none;stroke-width:0.165046"
           x="18.806623"
           y="60.969265"
           id="text4728"
           transform="scale(1.1036769,0.90606228)"><tspan
             sodipodi:role="line"
             id="tspan4726"
             style="stroke-width:0.165046;fill:#ffffff"
             x="18.806623"
             y="60.969265">COMMUNITY COLLEGE</tspan></text>
      </g>
    </g>
  </g>
</svg>
